<svg width="57" height="40" viewBox="0 0 57 40" fill="none" xmlns="http://www.w3.org/2000/svg">
<rect width="57" height="40" rx="15" fill="url(#paint0_linear_44_235)"/>
<path d="M28.2308 30C27.9451 30 27.7088 29.8988 27.522 29.6964C27.3352 29.494 27.2418 29.2381 27.2418 28.9286V21.0714H19.989C19.7033 21.0714 19.467 20.9702 19.2802 20.7679C19.0934 20.5655 19 20.3095 19 20C19 19.6905 19.0934 19.4345 19.2802 19.2321C19.467 19.0298 19.7033 18.9286 19.989 18.9286H27.2418V11.0714C27.2418 10.7619 27.3352 10.506 27.522 10.3036C27.7088 10.1012 27.9451 10 28.2308 10C28.5165 10 28.7527 10.1012 28.9396 10.3036C29.1264 10.506 29.2198 10.7619 29.2198 11.0714V18.9286H36.4725C36.7582 18.9286 36.9945 19.0298 37.1813 19.2321C37.3681 19.4345 37.4615 19.6905 37.4615 20C37.4615 20.3095 37.3681 20.5655 37.1813 20.7679C36.9945 20.9702 36.7582 21.0714 36.4725 21.0714H29.2198V28.9286C29.2198 29.2381 29.1264 29.494 28.9396 29.6964C28.7527 29.8988 28.5165 30 28.2308 30Z" fill="white"/>
<defs>
<linearGradient id="paint0_linear_44_235" x1="0" y1="0" x2="57" y2="40" gradientUnits="userSpaceOnUse">
<stop stop-color="#6CC99C"/>
<stop offset="1" stop-color="#43CA89"/>
</linearGradient>
</defs>
</svg>
