<svg width="30" height="31" viewBox="0 0 30 31" fill="none" xmlns="http://www.w3.org/2000/svg">
<path d="M1.25 26.9708C0.888889 26.9708 0.590278 26.8527 0.354167 26.6166C0.118056 26.3805 0 26.0819 0 25.7208C0 25.3597 0.118056 25.0611 0.354167 24.825C0.590278 24.5888 0.888889 24.4708 1.25 24.4708H9.04167C9.40278 24.4708 9.70139 24.5888 9.9375 24.825C10.1736 25.0611 10.2917 25.3597 10.2917 25.7208C10.2917 26.0819 10.1736 26.3805 9.9375 26.6166C9.70139 26.8527 9.40278 26.9708 9.04167 26.9708H1.25ZM1.25 6.30412C0.888889 6.30412 0.590278 6.18606 0.354167 5.94995C0.118056 5.71384 0 5.41523 0 5.05412C0 4.69301 0.118056 4.3944 0.354167 4.15828C0.590278 3.92217 0.888889 3.80412 1.25 3.80412H15.9583C16.3194 3.80412 16.6181 3.92217 16.8542 4.15828C17.0903 4.3944 17.2083 4.69301 17.2083 5.05412C17.2083 5.41523 17.0903 5.71384 16.8542 5.94995C16.6181 6.18606 16.3194 6.30412 15.9583 6.30412H1.25ZM14.0417 30.3875C13.6806 30.3875 13.3819 30.2694 13.1458 30.0333C12.9097 29.7972 12.7917 29.4986 12.7917 29.1375V22.2625C12.7917 21.9013 12.9097 21.6027 13.1458 21.3666C13.3819 21.1305 13.6806 21.0125 14.0417 21.0125C14.4028 21.0125 14.7014 21.1305 14.9375 21.3666C15.1736 21.6027 15.2917 21.9013 15.2917 22.2625V22.2625C15.2917 23.4821 16.2804 24.4708 17.5 24.4708H28.75C29.1111 24.4708 29.4097 24.5888 29.6458 24.825C29.8819 25.0611 30 25.3597 30 25.7208C30 26.0819 29.8819 26.3805 29.6458 26.6166C29.4097 26.8527 29.1111 26.9708 28.75 26.9708H17.4583C16.2617 26.9708 15.2917 27.9408 15.2917 29.1375V29.1375C15.2917 29.4986 15.1736 29.7972 14.9375 30.0333C14.7014 30.2694 14.4028 30.3875 14.0417 30.3875ZM9.04167 20.0541C8.68056 20.0541 8.38194 19.9361 8.14583 19.7C7.90972 19.4638 7.79167 19.1652 7.79167 18.8041V18.8041C7.79167 17.6075 6.82162 16.6375 5.625 16.6375H1.25C0.888889 16.6375 0.590278 16.5194 0.354167 16.2833C0.118056 16.0472 0 15.7486 0 15.3875C0 15.0263 0.118056 14.7277 0.354167 14.4916C0.590278 14.2555 0.888889 14.1375 1.25 14.1375H5.54167C6.78431 14.1375 7.79167 13.1301 7.79167 11.8875V11.8875C7.79167 11.5263 7.90972 11.2277 8.14583 10.9916C8.38194 10.7555 8.68056 10.6375 9.04167 10.6375C9.40278 10.6375 9.70139 10.7555 9.9375 10.9916C10.1736 11.2277 10.2917 11.5263 10.2917 11.8875V18.8041C10.2917 19.1652 10.1736 19.4638 9.9375 19.7C9.70139 19.9361 9.40278 20.0541 9.04167 20.0541ZM14.0417 16.6375C13.6806 16.6375 13.3819 16.5194 13.1458 16.2833C12.9097 16.0472 12.7917 15.7486 12.7917 15.3875C12.7917 15.0263 12.9097 14.7277 13.1458 14.4916C13.3819 14.2555 13.6806 14.1375 14.0417 14.1375H28.75C29.1111 14.1375 29.4097 14.2555 29.6458 14.4916C29.8819 14.7277 30 15.0263 30 15.3875C30 15.7486 29.8819 16.0472 29.6458 16.2833C29.4097 16.5194 29.1111 16.6375 28.75 16.6375H14.0417ZM20.9583 9.76245C20.5972 9.76245 20.2986 9.6444 20.0625 9.40828C19.8264 9.17217 19.7083 8.87356 19.7083 8.51245V1.63745C19.7083 1.27634 19.8264 0.977729 20.0625 0.741618C20.2986 0.505507 20.5972 0.387451 20.9583 0.387451C21.3194 0.387451 21.6181 0.505507 21.8542 0.741618C22.0903 0.977729 22.2083 1.27634 22.2083 1.63745V1.63745C22.2083 2.83407 23.1784 3.80412 24.375 3.80412H28.75C29.1111 3.80412 29.4097 3.92217 29.6458 4.15828C29.8819 4.3944 30 4.69301 30 5.05412C30 5.41523 29.8819 5.71384 29.6458 5.94995C29.4097 6.18606 29.1111 6.30412 28.75 6.30412H24.4167C23.197 6.30412 22.2083 7.29282 22.2083 8.51245V8.51245C22.2083 8.87356 22.0903 9.17217 21.8542 9.40828C21.6181 9.6444 21.3194 9.76245 20.9583 9.76245Z" fill="#3F3F3F"/>
</svg>
