<svg width="50" height="50" viewBox="0 0 50 50" fill="none" xmlns="http://www.w3.org/2000/svg">
<rect width="50" height="50" rx="10" fill="url(#paint0_linear_328_3)"/>
<path d="M20.625 36.2812H16.3576C15.9357 36.2812 15.5937 35.9392 15.5937 35.5174V20.4688M15.5937 20.4688H12.7639C12.342 20.4688 12 20.1267 12 19.7049V14.7639C12 14.342 12.342 14 12.7639 14H37.1111C37.533 14 37.875 14.342 37.875 14.7639V19.7049C37.875 20.1267 37.533 20.4688 37.1111 20.4688H34.2812M15.5937 20.4688H34.2812M34.2812 20.4688V35.5174C34.2812 35.9392 33.9392 36.2812 33.5174 36.2812H29.9687M24.9375 37V24.0625M24.9375 24.0625L20.625 29.0938M24.9375 24.0625L29.25 29.0938" stroke="white" stroke-width="1.14582"/>
<defs>
<linearGradient id="paint0_linear_328_3" x1="45.5" y1="50" x2="0" y2="0" gradientUnits="userSpaceOnUse">
<stop stop-color="#01A64E"/>
<stop offset="1" stop-color="#2FAB69"/>
</linearGradient>
</defs>
</svg>
