<svg width="376" height="345" viewBox="0 0 376 345" fill="none" xmlns="http://www.w3.org/2000/svg">
<g filter="url(#filter0_dd_46_301)">
<path d="M133.2 257.409H93.3663C92.362 257.409 91.5449 256.593 91.5449 255.59C91.5449 254.588 92.362 253.772 93.3663 253.772H133.2C134.204 253.772 135.021 254.588 135.021 255.59C135.021 256.593 134.204 257.409 133.2 257.409H133.2Z" fill="#01A64E"/>
</g>
<g filter="url(#filter1_dd_46_301)">
<path d="M62.0592 267.142C62.0592 267.468 62.3219 267.731 62.6491 267.731H163.916C164.244 267.731 164.506 267.468 164.506 267.142C164.506 266.815 164.244 266.553 163.916 266.553H62.6491C62.3219 266.553 62.0592 266.815 62.0592 267.142Z" fill="#3F3D56"/>
</g>
<g filter="url(#filter2_dd_46_301)">
<path d="M286.221 148.337C304.016 148.337 318.441 133.934 318.441 116.168C318.441 98.4023 304.016 84 286.221 84C268.426 84 254 98.4023 254 116.168C254 133.934 268.426 148.337 286.221 148.337Z" fill="#FF6884"/>
</g>
<g filter="url(#filter3_dd_46_301)">
<path d="M6.09704 315L5 313.535L112.07 194.494L150.645 215.564L192.301 128.526L226.525 108.426L258.235 172.818C275.354 118.818 318.288 62.3205 369.734 5L371 6.2485C322.749 62.5339 281.465 119.075 258.036 176.27L228.706 116.535C227.32 113.713 224.408 112.623 221.961 114.01L221.961 114.01C203.254 124.616 187.65 141.927 177.236 163.63L151.143 218.009L145.186 214.756C125.266 203.875 101.946 208.436 85.8199 226.364L6.09704 315Z" fill="#3F3D56"/>
</g>
<path d="M372 11.9484L370.606 12.052L368.357 6.83672L363.321 5.74234L363.125 4.2621L371.426 3L372 11.9484Z" fill="#3F3D56"/>
<path d="M189.007 109.174L193.352 92.4972L210.279 91.6843L215.343 114.673L189.007 109.174Z" fill="#FFB6B6"/>
<g opacity="0.1" filter="url(#filter4_dd_46_301)">
<path d="M189.007 109.174L193.352 92.4972L210.279 91.6843L215.343 114.673L189.007 109.174Z" fill="black"/>
</g>
<g filter="url(#filter5_dd_46_301)">
<path d="M200.145 101.83C211.429 101.83 220.576 92.6975 220.576 81.432C220.576 70.1666 211.429 61.0342 200.145 61.0342C188.862 61.0342 179.714 70.1666 179.714 81.432C179.714 92.6975 188.862 101.83 200.145 101.83Z" fill="#FFB6B6"/>
</g>
<g filter="url(#filter6_dd_46_301)">
<path d="M211.418 85.7496H211.418C211.418 85.7496 203.657 70.3966 194.563 71.283C185.469 72.1694 180.678 73.2474 180.678 73.2474C180.678 73.2474 177.979 61.2898 190.688 56.6903C190.688 56.6903 174.529 40.7873 193.767 32.9862C213.006 25.1851 223.772 35.1344 223.772 35.1344C223.772 35.1344 238.012 49.3278 220.077 59.9361C220.077 59.9361 233.395 77.8211 217.27 92.5624C217.27 92.5624 220.877 80.6334 217.113 82.8333C213.35 85.0332 211.418 85.7496 211.418 85.7496V85.7496L211.418 85.7496L211.418 85.7496Z" fill="#2F2E41"/>
</g>
<g filter="url(#filter7_dd_46_301)">
<path d="M177.603 193.52L174.885 196.121L155.252 238.15L153.103 307.669H186.09L201.564 273.242L211.99 307.337H241.65L248.525 245.445L230.042 201.674L177.603 193.52Z" fill="#2F2E41"/>
</g>
<g filter="url(#filter8_dd_46_301)">
<path d="M211.775 107.479H189.745L165.783 120.353L171.371 145.243C171.371 145.243 170.081 160.262 173.09 171.42C176.099 182.577 174.809 197.168 174.809 197.168L230.043 201.674L231.762 151.036L230.902 117.135L211.775 107.479V107.479Z" fill="#E6E6E6"/>
</g>
<g filter="url(#filter9_dd_46_301)">
<path d="M169.436 120.568C169.436 120.568 156.112 120.997 153.963 129.579C151.813 138.162 150.094 182.363 150.094 182.363C150.094 182.363 151.384 208.59 165.783 196.12C180.182 183.65 178.893 145.886 178.893 145.886L169.436 120.568Z" fill="#E6E6E6"/>
</g>
<g filter="url(#filter10_dd_46_301)">
<path d="M298.678 339.505H220.154C217.495 339.505 215.331 337.345 215.331 334.69V253.646C215.331 250.991 217.495 248.831 220.154 248.831H298.678C301.338 248.831 303.501 250.991 303.501 253.646V334.69C303.501 337.345 301.338 339.505 298.678 339.505Z" fill="white"/>
</g>
<path d="M298.678 340H220.154C217.222 340 214.835 337.618 214.835 334.69V253.646C214.835 250.718 217.222 248.336 220.154 248.336H298.678C301.611 248.336 303.997 250.718 303.997 253.646V334.69C303.997 337.618 301.611 340 298.678 340ZM220.154 249.326C217.768 249.326 215.827 251.264 215.827 253.646V334.69C215.827 337.072 217.768 339.01 220.154 339.01H298.678C301.064 339.01 303.005 337.072 303.005 334.69V253.646C303.005 251.264 301.064 249.326 298.678 249.326H220.154Z" fill="#3F3D56"/>
<g filter="url(#filter11_dd_46_301)">
<path d="M262.515 318.214H256.043C255.255 318.214 254.614 317.72 254.614 317.113V289.294C254.614 288.687 255.255 288.193 256.043 288.193H262.515C263.303 288.193 263.944 288.687 263.944 289.294V317.113C263.944 317.72 263.303 318.214 262.515 318.214Z" fill="#01A64E"/>
</g>
<g filter="url(#filter12_dd_46_301)">
<path d="M241.118 301.82C240.482 301.82 239.964 302.219 239.964 302.71V317.082C239.964 317.572 240.482 317.972 241.118 317.972H247.59C248.227 317.972 248.745 317.572 248.745 317.082V302.71C248.745 302.219 248.227 301.82 247.59 301.82H241.118Z" fill="#01A64E"/>
</g>
<g filter="url(#filter13_dd_46_301)">
<path d="M277.44 318.214H270.968C270.18 318.214 269.539 317.72 269.539 317.113V271.523C269.539 270.915 270.18 270.421 270.968 270.421H277.44C278.228 270.421 278.869 270.915 278.869 271.523V317.113C278.869 317.72 278.228 318.214 277.44 318.214Z" fill="#01A64E"/>
</g>
<g filter="url(#filter14_dd_46_301)">
<path d="M138.168 118.375H130.775C129.875 118.375 129.143 117.811 129.143 117.117V85.3398C129.143 84.6461 129.875 84.0818 130.775 84.0818H138.168C139.068 84.0818 139.8 84.6461 139.8 85.3398V117.117C139.8 117.811 139.068 118.375 138.168 118.375V118.375V118.375Z" fill="#01A64E"/>
</g>
<g filter="url(#filter15_dd_46_301)">
<path d="M113.727 99.6484C113 99.6484 112.408 100.104 112.408 100.665V117.082C112.408 117.642 113 118.098 113.727 118.098H121.12C121.847 118.098 122.439 117.642 122.439 117.082V100.665C122.439 100.104 121.847 99.6484 121.12 99.6484H113.727Z" fill="#01A64E"/>
</g>
<g filter="url(#filter16_dd_46_301)">
<path d="M155.217 118.375H147.824C146.924 118.375 146.191 117.811 146.191 117.117V65.0399C146.191 64.3462 146.924 63.7819 147.824 63.7819H155.217C156.117 63.7819 156.849 64.3462 156.849 65.0399V117.117C156.849 117.811 156.117 118.375 155.217 118.375V118.375V118.375Z" fill="#01A64E"/>
</g>
<path d="M247.378 260.623C251.207 260.257 253.844 255.091 253.268 249.082C253.071 246.678 252.3 244.357 251.02 242.312L250.282 235.511L250.395 235.477L252.25 203.23C252.681 195.733 249.708 188.365 243.981 183.496C240.574 180.6 236.939 179.134 234.602 182.793C230.723 188.865 235.747 213.896 239.046 228.127L240.325 243.334C239.456 245.585 239.14 248.011 239.403 250.409C239.978 256.416 243.549 260.989 247.378 260.623V260.623Z" fill="#FFB6B6"/>
<g filter="url(#filter17_dd_46_301)">
<path d="M226.174 117.993C226.174 117.993 237.35 113.702 242.507 126.576C247.665 139.449 253.253 202.961 253.253 202.961L227.034 198.24L226.174 117.993V117.993V117.993Z" fill="#E6E6E6"/>
</g>
<g filter="url(#filter18_dd_46_301)">
<path d="M72.719 111.696H57.6708C56.6666 111.696 55.8495 110.88 55.8495 109.878C55.8495 108.875 56.6666 108.06 57.6708 108.06H72.719C73.7232 108.06 74.5399 108.875 74.5399 109.878C74.5399 110.88 73.7232 111.696 72.719 111.696Z" fill="#E6E6E6"/>
</g>
<g filter="url(#filter19_dd_46_301)">
<path d="M72.719 85.9221H57.6708C56.6666 85.9221 55.8495 85.1063 55.8495 84.1037C55.8495 83.1011 56.6666 82.2856 57.6708 82.2856H72.719C73.7232 82.2856 74.5399 83.1011 74.5399 84.1037C74.5399 85.1063 73.7232 85.9221 72.719 85.9221Z" fill="#E6E6E6"/>
</g>
<g filter="url(#filter20_dd_46_301)">
<path d="M72.719 67.3351H57.6708C56.6666 67.3351 55.8495 66.5193 55.8495 65.5167C55.8495 64.5142 56.6666 63.6987 57.6708 63.6987H72.719C73.7232 63.6987 74.5399 64.5141 74.5399 65.5167C74.5399 66.5194 73.7232 67.3351 72.719 67.3351Z" fill="#E6E6E6"/>
</g>
<g filter="url(#filter21_dd_46_301)">
<path d="M55.2458 118.465C55.2458 118.792 55.5086 119.054 55.8358 119.054H157.103C157.43 119.054 157.693 118.792 157.693 118.465C157.693 118.138 157.43 117.876 157.103 117.876H55.8358C55.5086 117.876 55.2458 118.138 55.2458 118.465Z" fill="#3F3D56"/>
</g>
<g filter="url(#filter22_dd_46_301)">
<path d="M250.553 270.893C250.553 271.22 250.816 271.482 251.143 271.482H352.41C352.737 271.482 353 271.22 353 270.893C353 270.567 352.737 270.305 352.41 270.305H251.143C250.816 270.305 250.553 270.567 250.553 270.893Z" fill="#3F3D56"/>
</g>
<g filter="url(#filter23_dd_46_301)">
<path d="M220.811 318.899C220.811 319.225 221.074 319.488 221.401 319.488H322.668C322.995 319.488 323.258 319.225 323.258 318.899C323.258 318.572 322.995 318.31 322.668 318.31H221.401C221.074 318.31 220.811 318.572 220.811 318.899Z" fill="#3F3D56"/>
</g>
<g filter="url(#filter24_dd_46_301)">
<path d="M152.713 115.488C148.884 115.854 146.247 121.019 146.823 127.029C147.021 129.432 147.791 131.754 149.071 133.799L149.809 140.6L149.696 140.634L147.841 172.88C147.41 180.378 150.383 187.745 156.11 192.614C159.517 195.51 163.152 196.977 165.489 193.317C169.368 187.245 164.344 162.215 161.045 147.984L159.766 132.777C160.635 130.526 160.951 128.1 160.688 125.702C160.113 119.694 156.542 115.122 152.713 115.488H152.713V115.488Z" fill="#FFB6B6"/>
</g>
<defs>
<filter id="filter0_dd_46_301" x="86.5449" y="248.772" width="53.4756" height="13.6364" filterUnits="userSpaceOnUse" color-interpolation-filters="sRGB">
<feFlood flood-opacity="0" result="BackgroundImageFix"/>
<feColorMatrix in="SourceAlpha" type="matrix" values="0 0 0 0 0 0 0 0 0 0 0 0 0 0 0 0 0 0 127 0" result="hardAlpha"/>
<feOffset dx="-1" dy="-1"/>
<feGaussianBlur stdDeviation="2"/>
<feComposite in2="hardAlpha" operator="out"/>
<feColorMatrix type="matrix" values="0 0 0 0 1 0 0 0 0 1 0 0 0 0 1 0 0 0 0.13 0"/>
<feBlend mode="normal" in2="BackgroundImageFix" result="effect1_dropShadow_46_301"/>
<feColorMatrix in="SourceAlpha" type="matrix" values="0 0 0 0 0 0 0 0 0 0 0 0 0 0 0 0 0 0 127 0" result="hardAlpha"/>
<feOffset dx="1" dy="1"/>
<feGaussianBlur stdDeviation="2"/>
<feComposite in2="hardAlpha" operator="out"/>
<feColorMatrix type="matrix" values="0 0 0 0 0 0 0 0 0 0 0 0 0 0 0 0 0 0 0.25 0"/>
<feBlend mode="normal" in2="effect1_dropShadow_46_301" result="effect2_dropShadow_46_301"/>
<feBlend mode="normal" in="SourceGraphic" in2="effect2_dropShadow_46_301" result="shape"/>
</filter>
<filter id="filter1_dd_46_301" x="57.0592" y="261.553" width="112.447" height="11.1779" filterUnits="userSpaceOnUse" color-interpolation-filters="sRGB">
<feFlood flood-opacity="0" result="BackgroundImageFix"/>
<feColorMatrix in="SourceAlpha" type="matrix" values="0 0 0 0 0 0 0 0 0 0 0 0 0 0 0 0 0 0 127 0" result="hardAlpha"/>
<feOffset dx="-1" dy="-1"/>
<feGaussianBlur stdDeviation="2"/>
<feComposite in2="hardAlpha" operator="out"/>
<feColorMatrix type="matrix" values="0 0 0 0 1 0 0 0 0 1 0 0 0 0 1 0 0 0 0.13 0"/>
<feBlend mode="normal" in2="BackgroundImageFix" result="effect1_dropShadow_46_301"/>
<feColorMatrix in="SourceAlpha" type="matrix" values="0 0 0 0 0 0 0 0 0 0 0 0 0 0 0 0 0 0 127 0" result="hardAlpha"/>
<feOffset dx="1" dy="1"/>
<feGaussianBlur stdDeviation="2"/>
<feComposite in2="hardAlpha" operator="out"/>
<feColorMatrix type="matrix" values="0 0 0 0 0 0 0 0 0 0 0 0 0 0 0 0 0 0 0.25 0"/>
<feBlend mode="normal" in2="effect1_dropShadow_46_301" result="effect2_dropShadow_46_301"/>
<feBlend mode="normal" in="SourceGraphic" in2="effect2_dropShadow_46_301" result="shape"/>
</filter>
<filter id="filter2_dd_46_301" x="249" y="79" width="74.4414" height="74.3367" filterUnits="userSpaceOnUse" color-interpolation-filters="sRGB">
<feFlood flood-opacity="0" result="BackgroundImageFix"/>
<feColorMatrix in="SourceAlpha" type="matrix" values="0 0 0 0 0 0 0 0 0 0 0 0 0 0 0 0 0 0 127 0" result="hardAlpha"/>
<feOffset dx="-1" dy="-1"/>
<feGaussianBlur stdDeviation="2"/>
<feComposite in2="hardAlpha" operator="out"/>
<feColorMatrix type="matrix" values="0 0 0 0 1 0 0 0 0 1 0 0 0 0 1 0 0 0 0.13 0"/>
<feBlend mode="normal" in2="BackgroundImageFix" result="effect1_dropShadow_46_301"/>
<feColorMatrix in="SourceAlpha" type="matrix" values="0 0 0 0 0 0 0 0 0 0 0 0 0 0 0 0 0 0 127 0" result="hardAlpha"/>
<feOffset dx="1" dy="1"/>
<feGaussianBlur stdDeviation="2"/>
<feComposite in2="hardAlpha" operator="out"/>
<feColorMatrix type="matrix" values="0 0 0 0 0 0 0 0 0 0 0 0 0 0 0 0 0 0 0.25 0"/>
<feBlend mode="normal" in2="effect1_dropShadow_46_301" result="effect2_dropShadow_46_301"/>
<feBlend mode="normal" in="SourceGraphic" in2="effect2_dropShadow_46_301" result="shape"/>
</filter>
<filter id="filter3_dd_46_301" x="0" y="0" width="376" height="320" filterUnits="userSpaceOnUse" color-interpolation-filters="sRGB">
<feFlood flood-opacity="0" result="BackgroundImageFix"/>
<feColorMatrix in="SourceAlpha" type="matrix" values="0 0 0 0 0 0 0 0 0 0 0 0 0 0 0 0 0 0 127 0" result="hardAlpha"/>
<feOffset dx="-1" dy="-1"/>
<feGaussianBlur stdDeviation="2"/>
<feComposite in2="hardAlpha" operator="out"/>
<feColorMatrix type="matrix" values="0 0 0 0 1 0 0 0 0 1 0 0 0 0 1 0 0 0 0.13 0"/>
<feBlend mode="normal" in2="BackgroundImageFix" result="effect1_dropShadow_46_301"/>
<feColorMatrix in="SourceAlpha" type="matrix" values="0 0 0 0 0 0 0 0 0 0 0 0 0 0 0 0 0 0 127 0" result="hardAlpha"/>
<feOffset dx="1" dy="1"/>
<feGaussianBlur stdDeviation="2"/>
<feComposite in2="hardAlpha" operator="out"/>
<feColorMatrix type="matrix" values="0 0 0 0 0 0 0 0 0 0 0 0 0 0 0 0 0 0 0.25 0"/>
<feBlend mode="normal" in2="effect1_dropShadow_46_301" result="effect2_dropShadow_46_301"/>
<feBlend mode="normal" in="SourceGraphic" in2="effect2_dropShadow_46_301" result="shape"/>
</filter>
<filter id="filter4_dd_46_301" x="184.007" y="86.6843" width="36.3362" height="32.9883" filterUnits="userSpaceOnUse" color-interpolation-filters="sRGB">
<feFlood flood-opacity="0" result="BackgroundImageFix"/>
<feColorMatrix in="SourceAlpha" type="matrix" values="0 0 0 0 0 0 0 0 0 0 0 0 0 0 0 0 0 0 127 0" result="hardAlpha"/>
<feOffset dx="-1" dy="-1"/>
<feGaussianBlur stdDeviation="2"/>
<feComposite in2="hardAlpha" operator="out"/>
<feColorMatrix type="matrix" values="0 0 0 0 1 0 0 0 0 1 0 0 0 0 1 0 0 0 0.13 0"/>
<feBlend mode="normal" in2="BackgroundImageFix" result="effect1_dropShadow_46_301"/>
<feColorMatrix in="SourceAlpha" type="matrix" values="0 0 0 0 0 0 0 0 0 0 0 0 0 0 0 0 0 0 127 0" result="hardAlpha"/>
<feOffset dx="1" dy="1"/>
<feGaussianBlur stdDeviation="2"/>
<feComposite in2="hardAlpha" operator="out"/>
<feColorMatrix type="matrix" values="0 0 0 0 0 0 0 0 0 0 0 0 0 0 0 0 0 0 0.25 0"/>
<feBlend mode="normal" in2="effect1_dropShadow_46_301" result="effect2_dropShadow_46_301"/>
<feBlend mode="normal" in="SourceGraphic" in2="effect2_dropShadow_46_301" result="shape"/>
</filter>
<filter id="filter5_dd_46_301" x="174.714" y="56.0342" width="50.8621" height="50.7957" filterUnits="userSpaceOnUse" color-interpolation-filters="sRGB">
<feFlood flood-opacity="0" result="BackgroundImageFix"/>
<feColorMatrix in="SourceAlpha" type="matrix" values="0 0 0 0 0 0 0 0 0 0 0 0 0 0 0 0 0 0 127 0" result="hardAlpha"/>
<feOffset dx="-1" dy="-1"/>
<feGaussianBlur stdDeviation="2"/>
<feComposite in2="hardAlpha" operator="out"/>
<feColorMatrix type="matrix" values="0 0 0 0 1 0 0 0 0 1 0 0 0 0 1 0 0 0 0.13 0"/>
<feBlend mode="normal" in2="BackgroundImageFix" result="effect1_dropShadow_46_301"/>
<feColorMatrix in="SourceAlpha" type="matrix" values="0 0 0 0 0 0 0 0 0 0 0 0 0 0 0 0 0 0 127 0" result="hardAlpha"/>
<feOffset dx="1" dy="1"/>
<feGaussianBlur stdDeviation="2"/>
<feComposite in2="hardAlpha" operator="out"/>
<feColorMatrix type="matrix" values="0 0 0 0 0 0 0 0 0 0 0 0 0 0 0 0 0 0 0.25 0"/>
<feBlend mode="normal" in2="effect1_dropShadow_46_301" result="effect2_dropShadow_46_301"/>
<feBlend mode="normal" in="SourceGraphic" in2="effect2_dropShadow_46_301" result="shape"/>
</filter>
<filter id="filter6_dd_46_301" x="175.438" y="25" width="58.6949" height="72.5624" filterUnits="userSpaceOnUse" color-interpolation-filters="sRGB">
<feFlood flood-opacity="0" result="BackgroundImageFix"/>
<feColorMatrix in="SourceAlpha" type="matrix" values="0 0 0 0 0 0 0 0 0 0 0 0 0 0 0 0 0 0 127 0" result="hardAlpha"/>
<feOffset dx="-1" dy="-1"/>
<feGaussianBlur stdDeviation="2"/>
<feComposite in2="hardAlpha" operator="out"/>
<feColorMatrix type="matrix" values="0 0 0 0 1 0 0 0 0 1 0 0 0 0 1 0 0 0 0.13 0"/>
<feBlend mode="normal" in2="BackgroundImageFix" result="effect1_dropShadow_46_301"/>
<feColorMatrix in="SourceAlpha" type="matrix" values="0 0 0 0 0 0 0 0 0 0 0 0 0 0 0 0 0 0 127 0" result="hardAlpha"/>
<feOffset dx="1" dy="1"/>
<feGaussianBlur stdDeviation="2"/>
<feComposite in2="hardAlpha" operator="out"/>
<feColorMatrix type="matrix" values="0 0 0 0 0 0 0 0 0 0 0 0 0 0 0 0 0 0 0.25 0"/>
<feBlend mode="normal" in2="effect1_dropShadow_46_301" result="effect2_dropShadow_46_301"/>
<feBlend mode="normal" in="SourceGraphic" in2="effect2_dropShadow_46_301" result="shape"/>
</filter>
<filter id="filter7_dd_46_301" x="148.103" y="188.52" width="105.422" height="124.149" filterUnits="userSpaceOnUse" color-interpolation-filters="sRGB">
<feFlood flood-opacity="0" result="BackgroundImageFix"/>
<feColorMatrix in="SourceAlpha" type="matrix" values="0 0 0 0 0 0 0 0 0 0 0 0 0 0 0 0 0 0 127 0" result="hardAlpha"/>
<feOffset dx="-1" dy="-1"/>
<feGaussianBlur stdDeviation="2"/>
<feComposite in2="hardAlpha" operator="out"/>
<feColorMatrix type="matrix" values="0 0 0 0 1 0 0 0 0 1 0 0 0 0 1 0 0 0 0.13 0"/>
<feBlend mode="normal" in2="BackgroundImageFix" result="effect1_dropShadow_46_301"/>
<feColorMatrix in="SourceAlpha" type="matrix" values="0 0 0 0 0 0 0 0 0 0 0 0 0 0 0 0 0 0 127 0" result="hardAlpha"/>
<feOffset dx="1" dy="1"/>
<feGaussianBlur stdDeviation="2"/>
<feComposite in2="hardAlpha" operator="out"/>
<feColorMatrix type="matrix" values="0 0 0 0 0 0 0 0 0 0 0 0 0 0 0 0 0 0 0.25 0"/>
<feBlend mode="normal" in2="effect1_dropShadow_46_301" result="effect2_dropShadow_46_301"/>
<feBlend mode="normal" in="SourceGraphic" in2="effect2_dropShadow_46_301" result="shape"/>
</filter>
<filter id="filter8_dd_46_301" x="160.783" y="102.479" width="75.9789" height="104.194" filterUnits="userSpaceOnUse" color-interpolation-filters="sRGB">
<feFlood flood-opacity="0" result="BackgroundImageFix"/>
<feColorMatrix in="SourceAlpha" type="matrix" values="0 0 0 0 0 0 0 0 0 0 0 0 0 0 0 0 0 0 127 0" result="hardAlpha"/>
<feOffset dx="-1" dy="-1"/>
<feGaussianBlur stdDeviation="2"/>
<feComposite in2="hardAlpha" operator="out"/>
<feColorMatrix type="matrix" values="0 0 0 0 1 0 0 0 0 1 0 0 0 0 1 0 0 0 0.13 0"/>
<feBlend mode="normal" in2="BackgroundImageFix" result="effect1_dropShadow_46_301"/>
<feColorMatrix in="SourceAlpha" type="matrix" values="0 0 0 0 0 0 0 0 0 0 0 0 0 0 0 0 0 0 127 0" result="hardAlpha"/>
<feOffset dx="1" dy="1"/>
<feGaussianBlur stdDeviation="2"/>
<feComposite in2="hardAlpha" operator="out"/>
<feColorMatrix type="matrix" values="0 0 0 0 0 0 0 0 0 0 0 0 0 0 0 0 0 0 0.25 0"/>
<feBlend mode="normal" in2="effect1_dropShadow_46_301" result="effect2_dropShadow_46_301"/>
<feBlend mode="normal" in="SourceGraphic" in2="effect2_dropShadow_46_301" result="shape"/>
</filter>
<filter id="filter9_dd_46_301" x="145.094" y="115.568" width="38.8284" height="88.9152" filterUnits="userSpaceOnUse" color-interpolation-filters="sRGB">
<feFlood flood-opacity="0" result="BackgroundImageFix"/>
<feColorMatrix in="SourceAlpha" type="matrix" values="0 0 0 0 0 0 0 0 0 0 0 0 0 0 0 0 0 0 127 0" result="hardAlpha"/>
<feOffset dx="-1" dy="-1"/>
<feGaussianBlur stdDeviation="2"/>
<feComposite in2="hardAlpha" operator="out"/>
<feColorMatrix type="matrix" values="0 0 0 0 1 0 0 0 0 1 0 0 0 0 1 0 0 0 0.13 0"/>
<feBlend mode="normal" in2="BackgroundImageFix" result="effect1_dropShadow_46_301"/>
<feColorMatrix in="SourceAlpha" type="matrix" values="0 0 0 0 0 0 0 0 0 0 0 0 0 0 0 0 0 0 127 0" result="hardAlpha"/>
<feOffset dx="1" dy="1"/>
<feGaussianBlur stdDeviation="2"/>
<feComposite in2="hardAlpha" operator="out"/>
<feColorMatrix type="matrix" values="0 0 0 0 0 0 0 0 0 0 0 0 0 0 0 0 0 0 0.25 0"/>
<feBlend mode="normal" in2="effect1_dropShadow_46_301" result="effect2_dropShadow_46_301"/>
<feBlend mode="normal" in="SourceGraphic" in2="effect2_dropShadow_46_301" result="shape"/>
</filter>
<filter id="filter10_dd_46_301" x="210.331" y="243.831" width="98.1698" height="100.674" filterUnits="userSpaceOnUse" color-interpolation-filters="sRGB">
<feFlood flood-opacity="0" result="BackgroundImageFix"/>
<feColorMatrix in="SourceAlpha" type="matrix" values="0 0 0 0 0 0 0 0 0 0 0 0 0 0 0 0 0 0 127 0" result="hardAlpha"/>
<feOffset dx="-1" dy="-1"/>
<feGaussianBlur stdDeviation="2"/>
<feComposite in2="hardAlpha" operator="out"/>
<feColorMatrix type="matrix" values="0 0 0 0 1 0 0 0 0 1 0 0 0 0 1 0 0 0 0.13 0"/>
<feBlend mode="normal" in2="BackgroundImageFix" result="effect1_dropShadow_46_301"/>
<feColorMatrix in="SourceAlpha" type="matrix" values="0 0 0 0 0 0 0 0 0 0 0 0 0 0 0 0 0 0 127 0" result="hardAlpha"/>
<feOffset dx="1" dy="1"/>
<feGaussianBlur stdDeviation="2"/>
<feComposite in2="hardAlpha" operator="out"/>
<feColorMatrix type="matrix" values="0 0 0 0 0 0 0 0 0 0 0 0 0 0 0 0 0 0 0.25 0"/>
<feBlend mode="normal" in2="effect1_dropShadow_46_301" result="effect2_dropShadow_46_301"/>
<feBlend mode="normal" in="SourceGraphic" in2="effect2_dropShadow_46_301" result="shape"/>
</filter>
<filter id="filter11_dd_46_301" x="249.614" y="283.193" width="19.33" height="40.0215" filterUnits="userSpaceOnUse" color-interpolation-filters="sRGB">
<feFlood flood-opacity="0" result="BackgroundImageFix"/>
<feColorMatrix in="SourceAlpha" type="matrix" values="0 0 0 0 0 0 0 0 0 0 0 0 0 0 0 0 0 0 127 0" result="hardAlpha"/>
<feOffset dx="-1" dy="-1"/>
<feGaussianBlur stdDeviation="2"/>
<feComposite in2="hardAlpha" operator="out"/>
<feColorMatrix type="matrix" values="0 0 0 0 1 0 0 0 0 1 0 0 0 0 1 0 0 0 0.13 0"/>
<feBlend mode="normal" in2="BackgroundImageFix" result="effect1_dropShadow_46_301"/>
<feColorMatrix in="SourceAlpha" type="matrix" values="0 0 0 0 0 0 0 0 0 0 0 0 0 0 0 0 0 0 127 0" result="hardAlpha"/>
<feOffset dx="1" dy="1"/>
<feGaussianBlur stdDeviation="2"/>
<feComposite in2="hardAlpha" operator="out"/>
<feColorMatrix type="matrix" values="0 0 0 0 0 0 0 0 0 0 0 0 0 0 0 0 0 0 0.25 0"/>
<feBlend mode="normal" in2="effect1_dropShadow_46_301" result="effect2_dropShadow_46_301"/>
<feBlend mode="normal" in="SourceGraphic" in2="effect2_dropShadow_46_301" result="shape"/>
</filter>
<filter id="filter12_dd_46_301" x="234.964" y="296.82" width="18.7811" height="26.1514" filterUnits="userSpaceOnUse" color-interpolation-filters="sRGB">
<feFlood flood-opacity="0" result="BackgroundImageFix"/>
<feColorMatrix in="SourceAlpha" type="matrix" values="0 0 0 0 0 0 0 0 0 0 0 0 0 0 0 0 0 0 127 0" result="hardAlpha"/>
<feOffset dx="-1" dy="-1"/>
<feGaussianBlur stdDeviation="2"/>
<feComposite in2="hardAlpha" operator="out"/>
<feColorMatrix type="matrix" values="0 0 0 0 1 0 0 0 0 1 0 0 0 0 1 0 0 0 0.13 0"/>
<feBlend mode="normal" in2="BackgroundImageFix" result="effect1_dropShadow_46_301"/>
<feColorMatrix in="SourceAlpha" type="matrix" values="0 0 0 0 0 0 0 0 0 0 0 0 0 0 0 0 0 0 127 0" result="hardAlpha"/>
<feOffset dx="1" dy="1"/>
<feGaussianBlur stdDeviation="2"/>
<feComposite in2="hardAlpha" operator="out"/>
<feColorMatrix type="matrix" values="0 0 0 0 0 0 0 0 0 0 0 0 0 0 0 0 0 0 0.25 0"/>
<feBlend mode="normal" in2="effect1_dropShadow_46_301" result="effect2_dropShadow_46_301"/>
<feBlend mode="normal" in="SourceGraphic" in2="effect2_dropShadow_46_301" result="shape"/>
</filter>
<filter id="filter13_dd_46_301" x="264.539" y="265.421" width="19.33" height="57.7928" filterUnits="userSpaceOnUse" color-interpolation-filters="sRGB">
<feFlood flood-opacity="0" result="BackgroundImageFix"/>
<feColorMatrix in="SourceAlpha" type="matrix" values="0 0 0 0 0 0 0 0 0 0 0 0 0 0 0 0 0 0 127 0" result="hardAlpha"/>
<feOffset dx="-1" dy="-1"/>
<feGaussianBlur stdDeviation="2"/>
<feComposite in2="hardAlpha" operator="out"/>
<feColorMatrix type="matrix" values="0 0 0 0 1 0 0 0 0 1 0 0 0 0 1 0 0 0 0.13 0"/>
<feBlend mode="normal" in2="BackgroundImageFix" result="effect1_dropShadow_46_301"/>
<feColorMatrix in="SourceAlpha" type="matrix" values="0 0 0 0 0 0 0 0 0 0 0 0 0 0 0 0 0 0 127 0" result="hardAlpha"/>
<feOffset dx="1" dy="1"/>
<feGaussianBlur stdDeviation="2"/>
<feComposite in2="hardAlpha" operator="out"/>
<feColorMatrix type="matrix" values="0 0 0 0 0 0 0 0 0 0 0 0 0 0 0 0 0 0 0.25 0"/>
<feBlend mode="normal" in2="effect1_dropShadow_46_301" result="effect2_dropShadow_46_301"/>
<feBlend mode="normal" in="SourceGraphic" in2="effect2_dropShadow_46_301" result="shape"/>
</filter>
<filter id="filter14_dd_46_301" x="124.143" y="79.0818" width="20.6575" height="44.2931" filterUnits="userSpaceOnUse" color-interpolation-filters="sRGB">
<feFlood flood-opacity="0" result="BackgroundImageFix"/>
<feColorMatrix in="SourceAlpha" type="matrix" values="0 0 0 0 0 0 0 0 0 0 0 0 0 0 0 0 0 0 127 0" result="hardAlpha"/>
<feOffset dx="-1" dy="-1"/>
<feGaussianBlur stdDeviation="2"/>
<feComposite in2="hardAlpha" operator="out"/>
<feColorMatrix type="matrix" values="0 0 0 0 1 0 0 0 0 1 0 0 0 0 1 0 0 0 0.13 0"/>
<feBlend mode="normal" in2="BackgroundImageFix" result="effect1_dropShadow_46_301"/>
<feColorMatrix in="SourceAlpha" type="matrix" values="0 0 0 0 0 0 0 0 0 0 0 0 0 0 0 0 0 0 127 0" result="hardAlpha"/>
<feOffset dx="1" dy="1"/>
<feGaussianBlur stdDeviation="2"/>
<feComposite in2="hardAlpha" operator="out"/>
<feColorMatrix type="matrix" values="0 0 0 0 0 0 0 0 0 0 0 0 0 0 0 0 0 0 0.25 0"/>
<feBlend mode="normal" in2="effect1_dropShadow_46_301" result="effect2_dropShadow_46_301"/>
<feBlend mode="normal" in="SourceGraphic" in2="effect2_dropShadow_46_301" result="shape"/>
</filter>
<filter id="filter15_dd_46_301" x="107.408" y="94.6484" width="20.0306" height="28.4495" filterUnits="userSpaceOnUse" color-interpolation-filters="sRGB">
<feFlood flood-opacity="0" result="BackgroundImageFix"/>
<feColorMatrix in="SourceAlpha" type="matrix" values="0 0 0 0 0 0 0 0 0 0 0 0 0 0 0 0 0 0 127 0" result="hardAlpha"/>
<feOffset dx="-1" dy="-1"/>
<feGaussianBlur stdDeviation="2"/>
<feComposite in2="hardAlpha" operator="out"/>
<feColorMatrix type="matrix" values="0 0 0 0 1 0 0 0 0 1 0 0 0 0 1 0 0 0 0.13 0"/>
<feBlend mode="normal" in2="BackgroundImageFix" result="effect1_dropShadow_46_301"/>
<feColorMatrix in="SourceAlpha" type="matrix" values="0 0 0 0 0 0 0 0 0 0 0 0 0 0 0 0 0 0 127 0" result="hardAlpha"/>
<feOffset dx="1" dy="1"/>
<feGaussianBlur stdDeviation="2"/>
<feComposite in2="hardAlpha" operator="out"/>
<feColorMatrix type="matrix" values="0 0 0 0 0 0 0 0 0 0 0 0 0 0 0 0 0 0 0.25 0"/>
<feBlend mode="normal" in2="effect1_dropShadow_46_301" result="effect2_dropShadow_46_301"/>
<feBlend mode="normal" in="SourceGraphic" in2="effect2_dropShadow_46_301" result="shape"/>
</filter>
<filter id="filter16_dd_46_301" x="141.191" y="58.7819" width="20.6575" height="64.5931" filterUnits="userSpaceOnUse" color-interpolation-filters="sRGB">
<feFlood flood-opacity="0" result="BackgroundImageFix"/>
<feColorMatrix in="SourceAlpha" type="matrix" values="0 0 0 0 0 0 0 0 0 0 0 0 0 0 0 0 0 0 127 0" result="hardAlpha"/>
<feOffset dx="-1" dy="-1"/>
<feGaussianBlur stdDeviation="2"/>
<feComposite in2="hardAlpha" operator="out"/>
<feColorMatrix type="matrix" values="0 0 0 0 1 0 0 0 0 1 0 0 0 0 1 0 0 0 0.13 0"/>
<feBlend mode="normal" in2="BackgroundImageFix" result="effect1_dropShadow_46_301"/>
<feColorMatrix in="SourceAlpha" type="matrix" values="0 0 0 0 0 0 0 0 0 0 0 0 0 0 0 0 0 0 127 0" result="hardAlpha"/>
<feOffset dx="1" dy="1"/>
<feGaussianBlur stdDeviation="2"/>
<feComposite in2="hardAlpha" operator="out"/>
<feColorMatrix type="matrix" values="0 0 0 0 0 0 0 0 0 0 0 0 0 0 0 0 0 0 0.25 0"/>
<feBlend mode="normal" in2="effect1_dropShadow_46_301" result="effect2_dropShadow_46_301"/>
<feBlend mode="normal" in="SourceGraphic" in2="effect2_dropShadow_46_301" result="shape"/>
</filter>
<filter id="filter17_dd_46_301" x="221.174" y="112.306" width="37.0792" height="95.6547" filterUnits="userSpaceOnUse" color-interpolation-filters="sRGB">
<feFlood flood-opacity="0" result="BackgroundImageFix"/>
<feColorMatrix in="SourceAlpha" type="matrix" values="0 0 0 0 0 0 0 0 0 0 0 0 0 0 0 0 0 0 127 0" result="hardAlpha"/>
<feOffset dx="-1" dy="-1"/>
<feGaussianBlur stdDeviation="2"/>
<feComposite in2="hardAlpha" operator="out"/>
<feColorMatrix type="matrix" values="0 0 0 0 1 0 0 0 0 1 0 0 0 0 1 0 0 0 0.13 0"/>
<feBlend mode="normal" in2="BackgroundImageFix" result="effect1_dropShadow_46_301"/>
<feColorMatrix in="SourceAlpha" type="matrix" values="0 0 0 0 0 0 0 0 0 0 0 0 0 0 0 0 0 0 127 0" result="hardAlpha"/>
<feOffset dx="1" dy="1"/>
<feGaussianBlur stdDeviation="2"/>
<feComposite in2="hardAlpha" operator="out"/>
<feColorMatrix type="matrix" values="0 0 0 0 0 0 0 0 0 0 0 0 0 0 0 0 0 0 0.25 0"/>
<feBlend mode="normal" in2="effect1_dropShadow_46_301" result="effect2_dropShadow_46_301"/>
<feBlend mode="normal" in="SourceGraphic" in2="effect2_dropShadow_46_301" result="shape"/>
</filter>
<filter id="filter18_dd_46_301" x="50.8495" y="103.06" width="28.6904" height="13.6364" filterUnits="userSpaceOnUse" color-interpolation-filters="sRGB">
<feFlood flood-opacity="0" result="BackgroundImageFix"/>
<feColorMatrix in="SourceAlpha" type="matrix" values="0 0 0 0 0 0 0 0 0 0 0 0 0 0 0 0 0 0 127 0" result="hardAlpha"/>
<feOffset dx="-1" dy="-1"/>
<feGaussianBlur stdDeviation="2"/>
<feComposite in2="hardAlpha" operator="out"/>
<feColorMatrix type="matrix" values="0 0 0 0 1 0 0 0 0 1 0 0 0 0 1 0 0 0 0.13 0"/>
<feBlend mode="normal" in2="BackgroundImageFix" result="effect1_dropShadow_46_301"/>
<feColorMatrix in="SourceAlpha" type="matrix" values="0 0 0 0 0 0 0 0 0 0 0 0 0 0 0 0 0 0 127 0" result="hardAlpha"/>
<feOffset dx="1" dy="1"/>
<feGaussianBlur stdDeviation="2"/>
<feComposite in2="hardAlpha" operator="out"/>
<feColorMatrix type="matrix" values="0 0 0 0 0 0 0 0 0 0 0 0 0 0 0 0 0 0 0.25 0"/>
<feBlend mode="normal" in2="effect1_dropShadow_46_301" result="effect2_dropShadow_46_301"/>
<feBlend mode="normal" in="SourceGraphic" in2="effect2_dropShadow_46_301" result="shape"/>
</filter>
<filter id="filter19_dd_46_301" x="50.8495" y="77.2856" width="28.6904" height="13.6364" filterUnits="userSpaceOnUse" color-interpolation-filters="sRGB">
<feFlood flood-opacity="0" result="BackgroundImageFix"/>
<feColorMatrix in="SourceAlpha" type="matrix" values="0 0 0 0 0 0 0 0 0 0 0 0 0 0 0 0 0 0 127 0" result="hardAlpha"/>
<feOffset dx="-1" dy="-1"/>
<feGaussianBlur stdDeviation="2"/>
<feComposite in2="hardAlpha" operator="out"/>
<feColorMatrix type="matrix" values="0 0 0 0 1 0 0 0 0 1 0 0 0 0 1 0 0 0 0.13 0"/>
<feBlend mode="normal" in2="BackgroundImageFix" result="effect1_dropShadow_46_301"/>
<feColorMatrix in="SourceAlpha" type="matrix" values="0 0 0 0 0 0 0 0 0 0 0 0 0 0 0 0 0 0 127 0" result="hardAlpha"/>
<feOffset dx="1" dy="1"/>
<feGaussianBlur stdDeviation="2"/>
<feComposite in2="hardAlpha" operator="out"/>
<feColorMatrix type="matrix" values="0 0 0 0 0 0 0 0 0 0 0 0 0 0 0 0 0 0 0.25 0"/>
<feBlend mode="normal" in2="effect1_dropShadow_46_301" result="effect2_dropShadow_46_301"/>
<feBlend mode="normal" in="SourceGraphic" in2="effect2_dropShadow_46_301" result="shape"/>
</filter>
<filter id="filter20_dd_46_301" x="50.8495" y="58.6987" width="28.6904" height="13.6364" filterUnits="userSpaceOnUse" color-interpolation-filters="sRGB">
<feFlood flood-opacity="0" result="BackgroundImageFix"/>
<feColorMatrix in="SourceAlpha" type="matrix" values="0 0 0 0 0 0 0 0 0 0 0 0 0 0 0 0 0 0 127 0" result="hardAlpha"/>
<feOffset dx="-1" dy="-1"/>
<feGaussianBlur stdDeviation="2"/>
<feComposite in2="hardAlpha" operator="out"/>
<feColorMatrix type="matrix" values="0 0 0 0 1 0 0 0 0 1 0 0 0 0 1 0 0 0 0.13 0"/>
<feBlend mode="normal" in2="BackgroundImageFix" result="effect1_dropShadow_46_301"/>
<feColorMatrix in="SourceAlpha" type="matrix" values="0 0 0 0 0 0 0 0 0 0 0 0 0 0 0 0 0 0 127 0" result="hardAlpha"/>
<feOffset dx="1" dy="1"/>
<feGaussianBlur stdDeviation="2"/>
<feComposite in2="hardAlpha" operator="out"/>
<feColorMatrix type="matrix" values="0 0 0 0 0 0 0 0 0 0 0 0 0 0 0 0 0 0 0.25 0"/>
<feBlend mode="normal" in2="effect1_dropShadow_46_301" result="effect2_dropShadow_46_301"/>
<feBlend mode="normal" in="SourceGraphic" in2="effect2_dropShadow_46_301" result="shape"/>
</filter>
<filter id="filter21_dd_46_301" x="50.2458" y="112.876" width="112.447" height="11.1779" filterUnits="userSpaceOnUse" color-interpolation-filters="sRGB">
<feFlood flood-opacity="0" result="BackgroundImageFix"/>
<feColorMatrix in="SourceAlpha" type="matrix" values="0 0 0 0 0 0 0 0 0 0 0 0 0 0 0 0 0 0 127 0" result="hardAlpha"/>
<feOffset dx="-1" dy="-1"/>
<feGaussianBlur stdDeviation="2"/>
<feComposite in2="hardAlpha" operator="out"/>
<feColorMatrix type="matrix" values="0 0 0 0 1 0 0 0 0 1 0 0 0 0 1 0 0 0 0.13 0"/>
<feBlend mode="normal" in2="BackgroundImageFix" result="effect1_dropShadow_46_301"/>
<feColorMatrix in="SourceAlpha" type="matrix" values="0 0 0 0 0 0 0 0 0 0 0 0 0 0 0 0 0 0 127 0" result="hardAlpha"/>
<feOffset dx="1" dy="1"/>
<feGaussianBlur stdDeviation="2"/>
<feComposite in2="hardAlpha" operator="out"/>
<feColorMatrix type="matrix" values="0 0 0 0 0 0 0 0 0 0 0 0 0 0 0 0 0 0 0.25 0"/>
<feBlend mode="normal" in2="effect1_dropShadow_46_301" result="effect2_dropShadow_46_301"/>
<feBlend mode="normal" in="SourceGraphic" in2="effect2_dropShadow_46_301" result="shape"/>
</filter>
<filter id="filter22_dd_46_301" x="245.553" y="265.305" width="112.447" height="11.1779" filterUnits="userSpaceOnUse" color-interpolation-filters="sRGB">
<feFlood flood-opacity="0" result="BackgroundImageFix"/>
<feColorMatrix in="SourceAlpha" type="matrix" values="0 0 0 0 0 0 0 0 0 0 0 0 0 0 0 0 0 0 127 0" result="hardAlpha"/>
<feOffset dx="-1" dy="-1"/>
<feGaussianBlur stdDeviation="2"/>
<feComposite in2="hardAlpha" operator="out"/>
<feColorMatrix type="matrix" values="0 0 0 0 1 0 0 0 0 1 0 0 0 0 1 0 0 0 0.13 0"/>
<feBlend mode="normal" in2="BackgroundImageFix" result="effect1_dropShadow_46_301"/>
<feColorMatrix in="SourceAlpha" type="matrix" values="0 0 0 0 0 0 0 0 0 0 0 0 0 0 0 0 0 0 127 0" result="hardAlpha"/>
<feOffset dx="1" dy="1"/>
<feGaussianBlur stdDeviation="2"/>
<feComposite in2="hardAlpha" operator="out"/>
<feColorMatrix type="matrix" values="0 0 0 0 0 0 0 0 0 0 0 0 0 0 0 0 0 0 0.25 0"/>
<feBlend mode="normal" in2="effect1_dropShadow_46_301" result="effect2_dropShadow_46_301"/>
<feBlend mode="normal" in="SourceGraphic" in2="effect2_dropShadow_46_301" result="shape"/>
</filter>
<filter id="filter23_dd_46_301" x="215.811" y="313.31" width="112.447" height="11.1779" filterUnits="userSpaceOnUse" color-interpolation-filters="sRGB">
<feFlood flood-opacity="0" result="BackgroundImageFix"/>
<feColorMatrix in="SourceAlpha" type="matrix" values="0 0 0 0 0 0 0 0 0 0 0 0 0 0 0 0 0 0 127 0" result="hardAlpha"/>
<feOffset dx="-1" dy="-1"/>
<feGaussianBlur stdDeviation="2"/>
<feComposite in2="hardAlpha" operator="out"/>
<feColorMatrix type="matrix" values="0 0 0 0 1 0 0 0 0 1 0 0 0 0 1 0 0 0 0.13 0"/>
<feBlend mode="normal" in2="BackgroundImageFix" result="effect1_dropShadow_46_301"/>
<feColorMatrix in="SourceAlpha" type="matrix" values="0 0 0 0 0 0 0 0 0 0 0 0 0 0 0 0 0 0 127 0" result="hardAlpha"/>
<feOffset dx="1" dy="1"/>
<feGaussianBlur stdDeviation="2"/>
<feComposite in2="hardAlpha" operator="out"/>
<feColorMatrix type="matrix" values="0 0 0 0 0 0 0 0 0 0 0 0 0 0 0 0 0 0 0.25 0"/>
<feBlend mode="normal" in2="effect1_dropShadow_46_301" result="effect2_dropShadow_46_301"/>
<feBlend mode="normal" in="SourceGraphic" in2="effect2_dropShadow_46_301" result="shape"/>
</filter>
<filter id="filter24_dd_46_301" x="141.744" y="110.467" width="30.1517" height="90.0223" filterUnits="userSpaceOnUse" color-interpolation-filters="sRGB">
<feFlood flood-opacity="0" result="BackgroundImageFix"/>
<feColorMatrix in="SourceAlpha" type="matrix" values="0 0 0 0 0 0 0 0 0 0 0 0 0 0 0 0 0 0 127 0" result="hardAlpha"/>
<feOffset dx="-1" dy="-1"/>
<feGaussianBlur stdDeviation="2"/>
<feComposite in2="hardAlpha" operator="out"/>
<feColorMatrix type="matrix" values="0 0 0 0 1 0 0 0 0 1 0 0 0 0 1 0 0 0 0.13 0"/>
<feBlend mode="normal" in2="BackgroundImageFix" result="effect1_dropShadow_46_301"/>
<feColorMatrix in="SourceAlpha" type="matrix" values="0 0 0 0 0 0 0 0 0 0 0 0 0 0 0 0 0 0 127 0" result="hardAlpha"/>
<feOffset dx="1" dy="1"/>
<feGaussianBlur stdDeviation="2"/>
<feComposite in2="hardAlpha" operator="out"/>
<feColorMatrix type="matrix" values="0 0 0 0 0 0 0 0 0 0 0 0 0 0 0 0 0 0 0.25 0"/>
<feBlend mode="normal" in2="effect1_dropShadow_46_301" result="effect2_dropShadow_46_301"/>
<feBlend mode="normal" in="SourceGraphic" in2="effect2_dropShadow_46_301" result="shape"/>
</filter>
</defs>
</svg>
