<svg width="30" height="26" viewBox="0 0 30 26" fill="none" xmlns="http://www.w3.org/2000/svg">
<path d="M10.375 25.2188H5.67013C5.24825 25.2188 4.90625 24.8767 4.90625 24.4549V8.03125M4.90625 8.03125H1.76388C1.342 8.03125 1 7.68925 1 7.26737V1.76388C1 1.342 1.342 1 1.76388 1H28.3611C28.783 1 29.125 1.342 29.125 1.76388V7.26737C29.125 7.68925 28.783 8.03125 28.3611 8.03125H25.2187M4.90625 8.03125H25.2187M25.2187 8.03125V24.4549C25.2187 24.8768 24.8767 25.2188 24.4549 25.2188H20.5312M15.0625 26V11.9375M15.0625 11.9375L10.375 17.4062M15.0625 11.9375L19.75 17.4062" stroke="#01A64E" stroke-width="1.14582"/>
</svg>
