<svg width="24" height="22" viewBox="0 0 24 22" fill="none" xmlns="http://www.w3.org/2000/svg">
<path d="M22.1514 10.4095L20.2473 8.58758L12.6604 1.32039C12.446 1.11525 12.1553 1 11.852 1C11.5489 1 11.258 1.11525 11.0437 1.32039L3.44532 8.58289L1.53634 10.4095C1.35647 10.5941 1.36177 10.882 1.54833 11.0605C1.7349 11.239 2.0357 11.2441 2.22873 11.072L3.30161 10.0454V19.9063C3.30161 20.5104 3.8134 21.0001 4.44471 21.0001H8.90446C9.53578 21.0001 10.0476 20.5104 10.0476 19.9063V13.6563C10.0476 13.57 10.1207 13.5001 10.2109 13.5001H13.4768C13.567 13.5001 13.6402 13.57 13.6402 13.6563V19.9063C13.6402 20.5104 14.1519 21.0001 14.7833 21.0001H19.248C19.5511 21.0001 19.8418 20.8848 20.0563 20.6797C20.2706 20.4746 20.391 20.1964 20.391 19.9063V10.0501L21.459 11.072C21.6521 11.2441 21.9528 11.239 22.1394 11.0605C22.326 10.882 22.3312 10.5941 22.1514 10.4095Z" stroke="#6CC99C" stroke-width="1.8"/>
</svg>
