<svg width="24" height="22" viewBox="0 0 24 22" fill="none" xmlns="http://www.w3.org/2000/svg">
<g clip-path="url(#clip0_72_231)">
<path d="M22.1514 10.4095L20.2473 8.58758L12.6605 1.32039C12.4461 1.11525 12.1553 1 11.8521 1C11.5489 1 11.2581 1.11525 11.0438 1.32039L3.44538 8.58289L1.5364 10.4095C1.35653 10.5941 1.36183 10.882 1.54839 11.0605C1.73496 11.239 2.03576 11.2441 2.22879 11.072L3.30167 10.0454V19.9063C3.30167 20.5104 3.81346 21.0001 4.44477 21.0001H8.90452C9.53584 21.0001 10.0476 20.5104 10.0476 19.9063V13.6563C10.0476 13.57 10.1207 13.5001 10.2109 13.5001H13.4769C13.5671 13.5001 13.6403 13.57 13.6403 13.6563V19.9063C13.6403 20.5104 14.152 21.0001 14.7834 21.0001H19.248C19.5512 21.0001 19.8419 20.8848 20.0563 20.6797C20.2706 20.4746 20.3911 20.1964 20.3911 19.9063V10.0501L21.4591 11.072C21.6521 11.2441 21.9529 11.239 22.1394 11.0605C22.3261 10.882 22.3313 10.5941 22.1514 10.4095Z" stroke="#CED0D0" stroke-width="1.8"/>
</g>
<defs>
<clipPath id="clip0_72_231">
<rect width="22.9659" height="22" fill="white" transform="translate(0.360992)"/>
</clipPath>
</defs>
</svg>
