<svg width="20" height="21" viewBox="0 0 20 21" fill="none" xmlns="http://www.w3.org/2000/svg">
<path d="M9.98501 20.9167C8.65725 20.9167 7.40236 20.6432 6.22033 20.0964C5.0383 19.5495 4.00605 18.803 3.12358 17.8568C2.24111 16.9106 1.54485 15.8038 1.03479 14.5365C0.524741 13.2691 0.269714 11.9236 0.269714 10.5C0.269714 9.02432 0.528789 7.65279 1.04694 6.38543C1.56509 5.11807 2.27349 4.01564 3.17216 3.07814C4.07082 2.14064 5.12331 1.40713 6.32963 0.877614C7.53595 0.3481 8.82727 0.0833435 10.2036 0.0833435C11.4828 0.0833435 12.6972 0.313378 13.8468 0.773448C14.9965 1.23352 16.0044 1.87154 16.8707 2.68751C17.737 3.50348 18.4252 4.47136 18.9352 5.59116C19.4453 6.71095 19.7003 7.93925 19.7003 9.27605C19.7003 11.1511 19.1903 12.6311 18.1701 13.7162C17.15 14.8012 15.798 15.3438 14.114 15.3438H12.2924C12.0009 15.3438 11.75 15.4653 11.5395 15.7083C11.329 15.9514 11.2237 16.2205 11.2237 16.5156C11.2237 16.9844 11.3411 17.3837 11.5759 17.7136C11.8107 18.0434 11.9281 18.4254 11.9281 18.8594C11.9281 19.5191 11.7581 20.0269 11.418 20.3828C11.078 20.7387 10.6003 20.9167 9.98501 20.9167ZM4.32585 11.1771C4.64969 11.1771 4.93306 11.0469 5.17594 10.7865C5.41882 10.5261 5.54026 10.2222 5.54026 9.87501C5.54026 9.52779 5.41882 9.22397 5.17594 8.96355C4.93306 8.70313 4.64969 8.57293 4.32585 8.57293C4.00201 8.57293 3.71864 8.70313 3.47576 8.96355C3.23288 9.22397 3.11144 9.52779 3.11144 9.87501C3.11144 10.2222 3.23288 10.5261 3.47576 10.7865C3.71864 11.0469 4.00201 11.1771 4.32585 11.1771ZM7.38617 6.75001C7.71001 6.75001 7.99337 6.6198 8.23626 6.35938C8.47914 6.09897 8.60058 5.79515 8.60058 5.44793C8.60058 5.1007 8.47914 4.79689 8.23626 4.53647C7.99337 4.27605 7.71001 4.14584 7.38617 4.14584C7.06232 4.14584 6.77896 4.27605 6.53608 4.53647C6.2932 4.79689 6.17176 5.1007 6.17176 5.44793C6.17176 5.79515 6.2932 6.09897 6.53608 6.35938C6.77896 6.6198 7.06232 6.75001 7.38617 6.75001ZM12.5839 6.75001C12.9077 6.75001 13.1911 6.6198 13.4339 6.35938C13.6768 6.09897 13.7983 5.79515 13.7983 5.44793C13.7983 5.1007 13.6768 4.79689 13.4339 4.53647C13.1911 4.27605 12.9077 4.14584 12.5839 4.14584C12.26 4.14584 11.9766 4.27605 11.7338 4.53647C11.4909 4.79689 11.3694 5.1007 11.3694 5.44793C11.3694 5.79515 11.4909 6.09897 11.7338 6.35938C11.9766 6.6198 12.26 6.75001 12.5839 6.75001ZM15.7656 11.1771C16.0895 11.1771 16.3728 11.0469 16.6157 10.7865C16.8586 10.5261 16.98 10.2222 16.98 9.87501C16.98 9.52779 16.8586 9.22397 16.6157 8.96355C16.3728 8.70313 16.0895 8.57293 15.7656 8.57293C15.4418 8.57293 15.1584 8.70313 14.9155 8.96355C14.6726 9.22397 14.5512 9.52779 14.5512 9.87501C14.5512 10.2222 14.6726 10.5261 14.9155 10.7865C15.1584 11.0469 15.4418 11.1771 15.7656 11.1771ZM9.98501 19.3542C10.1631 19.3542 10.2886 19.3151 10.3615 19.237C10.4343 19.1589 10.4708 19.033 10.4708 18.8594C10.4708 18.6163 10.3534 18.3906 10.1186 18.1823C9.88381 17.974 9.76641 17.5139 9.76641 16.8021C9.76641 16.0035 10.0093 15.3004 10.4951 14.6927C10.9808 14.0851 11.5961 13.7813 12.341 13.7813H14.114C15.3446 13.7813 16.3404 13.395 17.1015 12.6224C17.8625 11.8498 18.243 10.7344 18.243 9.27605C18.243 6.98438 17.4334 5.13977 15.8142 3.7422C14.195 2.34463 12.3248 1.64584 10.2036 1.64584C7.83955 1.64584 5.83577 2.50088 4.19226 4.21095C2.54876 5.92102 1.72701 8.01737 1.72701 10.5C1.72701 12.9479 2.53257 15.0356 4.14369 16.763C5.75481 18.4905 7.70191 19.3542 9.98501 19.3542Z" fill="#3F3F3F"/>
</svg>
