<svg width="20" height="12" viewBox="0 0 20 12" fill="none" xmlns="http://www.w3.org/2000/svg">
<path d="M0.737595 11.9792C0.429944 11.9792 0.21135 11.8359 0.081813 11.5495C-0.0477242 11.263 -0.0234361 10.9896 0.154678 10.7292L4.52656 4.47917C4.67229 4.27083 4.8666 4.16667 5.10948 4.16667C5.35236 4.16667 5.54667 4.27083 5.6924 4.47917L9.84569 10.4167H17.7394L11.9102 2.10937L8.87416 6.43229L7.9512 5.13021L11.3273 0.3125C11.473 0.104167 11.6673 0 11.9102 0C12.1531 0 12.3474 0.104167 12.4931 0.3125L19.7796 10.7292C19.9577 10.9896 19.982 11.263 19.8524 11.5495C19.7229 11.8359 19.5043 11.9792 19.1967 11.9792H0.737595ZM2.19489 10.4167H8.02407L5.10948 6.25L2.19489 10.4167ZM2.19489 10.4167H8.02407H2.19489Z" fill="#3F3F3F"/>
</svg>
