<svg width="20" height="17" viewBox="0 0 20 17" fill="none" xmlns="http://www.w3.org/2000/svg">
<path d="M6.9465 7.34375L6.1207 9.375L4.22621 10.2604L6.1207 11.1458L6.9465 13.1771L7.7723 11.1458L9.66678 10.2604L7.7723 9.375L6.9465 7.34375ZM13.4072 7.03125L12.8 8.4375L11.4884 9.08854L12.8 9.73958L13.4072 11.1458L14.0144 9.73958L15.3259 9.08854L14.0144 8.4375L13.4072 7.03125ZM1.45736 0L3.25468 3.95833H6.41216L4.61483 0H6.77648L8.57381 3.95833H11.7313L9.93395 0H12.0956L13.8929 3.95833H17.0504L15.2531 0H17.9734C18.362 0 18.702 0.15625 18.9935 0.46875C19.2849 0.78125 19.4307 1.14583 19.4307 1.5625V15.1042C19.4307 15.5208 19.2849 15.8854 18.9935 16.1979C18.702 16.5104 18.362 16.6667 17.9734 16.6667H1.45736C1.06874 16.6667 0.728708 16.5104 0.437249 16.1979C0.14579 15.8854 6.10352e-05 15.5208 6.10352e-05 15.1042V1.5625C6.10352e-05 1.14583 0.14579 0.78125 0.437249 0.46875C0.728708 0.15625 1.06874 0 1.45736 0ZM1.45736 5.52083V15.1042H17.9734V5.52083H1.45736ZM1.45736 5.52083V15.1042V5.52083Z" fill="#3F3F3F"/>
</svg>
