<svg width="18" height="21" viewBox="0 0 18 21" fill="none" xmlns="http://www.w3.org/2000/svg">
<path d="M8.77131 20.8333C7.86455 20.8333 7.07518 20.4991 6.40321 19.8307C5.73123 19.1623 5.32238 18.2812 5.17665 17.1875C4.22131 17.5868 3.3267 17.6215 2.4928 17.2917C1.6589 16.9618 1.00717 16.3802 0.537598 15.5469C0.0680255 14.7135 -0.0857999 13.8021 0.0761217 12.8125C0.238043 11.8229 0.788577 11.0243 1.72772 10.4167C0.756192 9.79167 0.197563 8.98872 0.0518333 8.00781C-0.0938961 7.02691 0.0680255 6.11979 0.537598 5.28646C1.00717 4.45312 1.6589 3.87153 2.4928 3.54167C3.3267 3.21181 4.22131 3.24653 5.17665 3.64583C5.32238 2.55208 5.73123 1.67101 6.40321 1.0026C7.07518 0.334202 7.86455 0 8.77131 0C9.67807 0 10.4674 0.334202 11.1394 1.0026C11.8114 1.67101 12.2202 2.55208 12.366 3.64583C13.3213 3.24653 14.2159 3.21181 15.0498 3.54167C15.8837 3.87153 16.5355 4.45312 17.005 5.28646C17.4746 6.11979 17.6365 7.02691 17.4908 8.00781C17.3451 8.98872 16.7864 9.79167 15.8149 10.4167C16.754 11.0243 17.3005 11.8273 17.4544 12.8255C17.6082 13.8238 17.4584 14.7309 17.005 15.5469C16.5355 16.3802 15.8837 16.9618 15.0498 17.2917C14.2159 17.6215 13.3213 17.5868 12.366 17.1875C12.2202 18.2812 11.8114 19.1623 11.1394 19.8307C10.4674 20.4991 9.67807 20.8333 8.77131 20.8333ZM8.77131 19.2708C9.59711 19.2708 10.1922 18.9019 10.5565 18.1641C10.9208 17.4262 10.9087 16.7101 10.5201 16.0156L9.74284 14.6354C9.56473 14.6875 9.39471 14.7222 9.23279 14.7396C9.07087 14.7569 8.91704 14.7656 8.77131 14.7656C8.62558 14.7656 8.47176 14.7569 8.30983 14.7396C8.14791 14.7222 7.9779 14.6875 7.79978 14.6354L7.02256 16.0156C6.63395 16.7101 6.6218 17.4262 6.98612 18.1641C7.35045 18.9019 7.94551 19.2708 8.77131 19.2708ZM1.80059 14.7656C2.22158 15.5295 2.78426 15.9375 3.48862 15.9896C4.19298 16.0417 4.79614 15.6944 5.29809 14.9479L6.07532 13.776C5.97816 13.6719 5.86077 13.533 5.72314 13.3594C5.5855 13.1858 5.46811 13.0122 5.37096 12.8385C5.2738 12.6649 5.18475 12.4696 5.10379 12.2526C5.02283 12.0356 4.95806 11.7882 4.90948 11.5104H3.4279C2.66687 11.5104 2.10014 11.862 1.72772 12.5651C1.3553 13.2682 1.37959 14.0017 1.80059 14.7656ZM12.2202 14.9479C12.706 15.7118 13.3092 16.0634 14.0297 16.0026C14.7503 15.9418 15.321 15.5295 15.742 14.7656C16.163 14.0017 16.1873 13.2682 15.8149 12.5651C15.4425 11.862 14.8758 11.5104 14.1147 11.5104H12.6331C12.5846 11.7882 12.5198 12.0356 12.4388 12.2526C12.3579 12.4696 12.2769 12.6649 12.196 12.8385C12.115 13.0122 12.0138 13.1771 11.8923 13.3333C11.7709 13.4896 11.6292 13.6372 11.4673 13.776L12.2202 14.9479ZM4.90948 9.32292L5.10379 8.69792C5.16856 8.48958 5.25761 8.28993 5.37096 8.09896C5.4843 7.90799 5.59765 7.72135 5.71099 7.53906C5.82434 7.35677 5.94578 7.19618 6.07532 7.05729L5.32238 5.91146C4.82042 5.14757 4.20512 4.78733 3.47647 4.83073C2.74783 4.87413 2.1892 5.28646 1.80059 6.06771C1.3634 6.84896 1.33506 7.5868 1.71558 8.28125C2.09609 8.97569 2.66687 9.32292 3.4279 9.32292H4.90948ZM14.1147 9.32292C14.8758 9.32292 15.4384 8.96267 15.8028 8.24219C16.1671 7.5217 16.1468 6.79687 15.742 6.06771C15.321 5.30382 14.7584 4.90017 14.054 4.85677C13.3496 4.81337 12.7384 5.16493 12.2202 5.91146L11.4673 7.05729C11.5968 7.16146 11.7183 7.30903 11.8316 7.5C11.945 7.69097 12.0583 7.89062 12.1717 8.09896C12.285 8.30729 12.3781 8.5026 12.451 8.6849C12.5238 8.86719 12.5846 9.07986 12.6331 9.32292H14.1147ZM7.79978 6.19792C7.9779 6.16319 8.14791 6.13281 8.30983 6.10677C8.47176 6.08073 8.62558 6.06771 8.77131 6.06771C8.91704 6.06771 9.07087 6.08073 9.23279 6.10677C9.39471 6.13281 9.56473 6.16319 9.74284 6.19792L10.5201 4.81771C10.9087 4.1059 10.9208 3.38542 10.5565 2.65625C10.1922 1.92708 9.59711 1.5625 8.77131 1.5625C7.94551 1.5625 7.35045 1.92708 6.98612 2.65625C6.6218 3.38542 6.63395 4.1059 7.02256 4.81771L7.79978 6.19792ZM8.7956 13.2031C9.50805 13.2031 10.1193 12.9297 10.6294 12.3828C11.1394 11.8359 11.3944 11.1806 11.3944 10.4167C11.3944 9.65278 11.1394 8.9974 10.6294 8.45052C10.1193 7.90365 9.50805 7.63021 8.7956 7.63021C8.08314 7.63021 7.47189 7.90365 6.96184 8.45052C6.45178 8.9974 6.19676 9.65278 6.19676 10.4167C6.19676 11.1806 6.45178 11.8359 6.96184 12.3828C7.47189 12.9297 8.08314 13.2031 8.7956 13.2031Z" fill="#3F3F3F"/>
</svg>
