<svg width="20" height="21" viewBox="0 0 20 21" fill="none" xmlns="http://www.w3.org/2000/svg">
<path d="M1.72405 18.2344L1.16542 18.0521C0.647275 17.809 0.295095 17.3924 0.108885 16.8021C-0.0773244 16.2118 -0.0247 15.6302 0.266759 15.0573L1.72405 11.5156V18.2344ZM6.24167 20.2656C5.69113 20.2656 5.22156 20.0573 4.83295 19.6406C4.44434 19.224 4.25003 18.7205 4.25003 18.1302V12.7396L6.48455 19.5625C6.51693 19.7014 6.56551 19.8229 6.63028 19.9271C6.69505 20.0312 6.77601 20.1441 6.87316 20.2656H6.24167ZM10.8079 19.6406C10.4678 19.7969 10.1116 19.7622 9.73917 19.5365C9.36675 19.3108 9.09958 18.9983 8.93766 18.599L4.29861 5.08333C4.13668 4.68403 4.15288 4.2934 4.34718 3.91146C4.54149 3.52951 4.84104 3.25174 5.24585 3.07812L12.9695 0.0833334C13.3419 -0.0555555 13.7063 -0.0208334 14.0625 0.1875C14.4187 0.395833 14.6778 0.708333 14.8397 1.125L19.4788 14.4844C19.5921 14.9184 19.5678 15.3438 19.4059 15.7604C19.244 16.1771 18.9606 16.4635 18.5558 16.6198L10.8079 19.6406ZM8.81622 6.75C9.01052 6.75 9.18054 6.67188 9.32627 6.51562C9.472 6.35938 9.54487 6.17708 9.54487 5.96875C9.54487 5.76042 9.472 5.57812 9.32627 5.42187C9.18054 5.26562 9.01052 5.1875 8.81622 5.1875C8.62191 5.1875 8.45189 5.26562 8.30617 5.42187C8.16044 5.57812 8.08757 5.76042 8.08757 5.96875C8.08757 6.17708 8.16044 6.35938 8.30617 6.51562C8.45189 6.67188 8.62191 6.75 8.81622 6.75ZM10.3464 18.1302L18.07 15.1094L13.431 1.59375L5.70732 4.58854L10.3464 18.1302ZM5.70732 4.58854L13.431 1.59375L5.70732 4.58854Z" fill="#3F3F3F"/>
</svg>
