<svg width="20" height="17" viewBox="0 0 20 17" fill="none" xmlns="http://www.w3.org/2000/svg">
<path d="M6.94644 7.34375L6.12064 9.375L4.22615 10.2604L6.12064 11.1458L6.94644 13.1771L7.77224 11.1458L9.66672 10.2604L7.77224 9.375L6.94644 7.34375ZM13.4071 7.03125L12.7999 8.4375L11.4883 9.08854L12.7999 9.73958L13.4071 11.1458L14.0143 9.73958L15.3259 9.08854L14.0143 8.4375L13.4071 7.03125ZM1.45729 0L3.25462 3.95833H6.4121L4.61477 0H6.77642L8.57375 3.95833H11.7312L9.93389 0H12.0955L13.8929 3.95833H17.0503L15.253 0H17.9733C18.3619 0 18.7019 0.15625 18.9934 0.46875C19.2849 0.78125 19.4306 1.14583 19.4306 1.5625V15.1042C19.4306 15.5208 19.2849 15.8854 18.9934 16.1979C18.7019 16.5104 18.3619 16.6667 17.9733 16.6667H1.45729C1.06868 16.6667 0.728647 16.5104 0.437188 16.1979C0.145729 15.8854 0 15.5208 0 15.1042V1.5625C0 1.14583 0.145729 0.78125 0.437188 0.46875C0.728647 0.15625 1.06868 0 1.45729 0ZM1.45729 5.52083V15.1042H17.9733V5.52083H1.45729ZM1.45729 5.52083V15.1042V5.52083Z" fill="#3F3F3F"/>
</svg>
